<svg xmlns="http://www.w3.org/2000/svg" version="1.0" preserveAspectRatio="xMidYMid meet" viewBox="22.17 47.14 382.51 115.69">

<g transform="translate(0.000000,200.000000) scale(0.100000,-0.100000)" fill="#000000" stroke="none">
<path d="M713 1523 c-42 -8 -24 -20 50 -32 291 -52 443 -210 470 -491 5 -52 5 -53 -8 -25 -7 17 -20 55 -29 86 -40 140 -194 300 -353 367 -152 64 -363 40 -439 -51 -33 -39 -31 -51 9 -43 159 33 279 25 382 -24 93 -45 158 -108 202 -198 37 -73 38 -80 38 -182 0 -99 -2 -110 -32 -171 -22 -44 -55 -87 -101 -131 -57 -56 -78 -69 -136 -87 -86 -27 -174 -41 -253 -41 -35 0 -63 -4 -63 -10 0 -20 113 -81 188 -101 201 -56 460 28 597 191 86 102 142 276 131 402 -23 254 -200 473 -431 533 -55 14 -170 18 -222 8z"/>
<path d="M1641 1387 c-5 -13 -12 -45 -16 -70 l-7 -47 56 0 c55 0 57 1 63 30 8 43 20 45 27 5 l7 -35 56 0 56 0 -6 35 c-3 19 -1 37 4 41 6 3 9 13 7 22 -2 13 -14 15 -61 13 -44 -2 -58 1 -63 13 -5 12 -20 16 -60 16 -48 0 -56 -3 -63 -23z"/>
<path d="M1910 1353 c-7 -32 -15 -64 -17 -70 -4 -10 11 -13 55 -13 l61 0 7 35 c7 37 24 48 24 16 0 -43 10 -51 67 -51 l55 0 -7 30 c-4 19 -2 36 5 45 23 28 6 39 -57 36 -47 -2 -62 1 -66 13 -5 12 -21 16 -60 16 l-54 0 -13 -57z"/>
<path d="M2438 1383 l-3 -28 -102 -3 -103 -3 0 -60 0 -60 68 3 67 3 1 35 0 35 140 0 139 0 3 -32 3 -33 65 0 64 0 0 55 0 54 -102 3 -103 3 -3 28 c-3 26 -5 27 -67 27 -62 0 -64 -1 -67 -27z"/>
<path d="M2880 1356 c0 -45 -3 -54 -20 -59 -11 -3 -20 -12 -20 -21 0 -9 8 -16 20 -16 19 0 20 -7 20 -99 0 -92 -1 -99 -21 -104 -26 -7 -22 -44 4 -39 14 2 17 -6 17 -58 0 -47 -3 -60 -15 -60 -9 0 -15 -9 -15 -25 0 -23 3 -25 51 -25 50 0 87 12 101 34 4 6 8 45 8 87 0 68 2 77 20 82 12 3 20 14 20 26 0 14 -6 21 -20 21 -18 0 -20 7 -20 76 0 67 2 76 20 81 11 3 20 13 20 23 0 10 -9 20 -20 23 -17 4 -20 14 -20 56 l0 51 -65 0 -65 0 0 -54z"/>
<path d="M3635 1363 c-12 -95 -16 -87 50 -93 l60 -5 -62 -50 c-34 -27 -62 -53 -62 -57 -1 -5 30 -8 67 -8 56 0 72 4 87 20 23 25 47 25 70 0 15 -16 31 -20 87 -20 37 0 68 3 67 8 0 4 -28 30 -62 57 l-61 50 61 3 c59 3 61 4 67 34 16 81 21 78 -119 78 -104 0 -125 2 -125 15 0 12 -13 15 -59 15 l-60 0 -6 -47z m243 -40 c3 -10 -14 -13 -62 -13 -61 0 -77 6 -59 24 12 12 116 2 121 -11z"/>
<path d="M3070 1290 l0 -111 63 3 62 3 3 88 c3 79 5 87 22 87 18 0 20 -7 20 -90 l0 -90 75 0 c61 0 77 3 82 16 4 10 -1 22 -10 29 -14 10 -17 29 -17 94 l0 81 -150 0 -150 0 0 -110z"/>
<path d="M3465 1368 c14 -70 12 -68 76 -68 65 0 66 2 53 69 -6 31 -7 31 -71 31 l-65 0 7 -32z"/>
<path d="M392 1290 c-65 -10 -82 -25 -116 -99 -44 -98 -59 -176 -53 -271 8 -132 56 -250 138 -344 36 -41 45 -46 82 -46 54 0 170 19 180 29 5 5 -16 22 -46 39 -174 98 -246 351 -151 537 14 29 48 75 75 101 27 27 49 52 49 56 0 10 -85 8 -158 -2z"/>
<path d="M3475 1243 c-4 -21 -9 -50 -11 -65 l-6 -28 65 0 64 0 7 38 c3 20 6 49 6 65 0 26 -1 27 -60 27 l-59 0 -6 -37z"/>
<path d="M1820 1250 c-8 -5 -54 -10 -102 -10 -72 0 -88 -3 -88 -15 0 -12 17 -15 96 -15 72 0 95 -3 91 -12 -2 -9 -30 -13 -88 -14 -69 -1 -85 -5 -87 -18 -3 -14 9 -16 88 -16 69 0 91 -3 87 -12 -3 -9 -33 -13 -102 -14 -84 -1 -99 -3 -101 -17 -2 -16 22 -17 278 -17 255 0 279 1 276 17 -2 14 -18 16 -98 17 -121 1 -132 20 -14 24 71 2 85 5 82 19 -2 12 -19 16 -83 17 -114 2 -106 20 10 24 75 2 95 6 95 17 0 12 -18 15 -94 15 -53 0 -98 4 -101 10 -8 13 -125 13 -145 0z"/>
<path d="M2280 1196 c0 -8 -10 -16 -22 -18 -15 -2 -24 -11 -26 -25 -3 -19 1 -23 22 -23 23 0 25 -4 28 -52 3 -51 4 -53 50 -77 26 -14 45 -28 43 -32 -7 -10 -114 -59 -131 -59 -11 0 -14 -8 -12 -27 3 -27 5 -28 71 -31 59 -3 78 1 136 28 l68 32 62 -32 c55 -27 70 -31 134 -28 70 3 72 4 75 31 2 19 -1 27 -12 27 -18 0 -95 33 -120 52 -17 13 -15 16 30 39 48 25 49 26 52 77 3 48 5 52 28 52 19 0 24 5 24 25 l0 25 -185 0 c-158 0 -185 2 -185 15 0 12 -14 15 -65 15 -50 0 -65 -3 -65 -14z m315 -95 c0 -19 -11 -30 -44 -48 l-44 -23 -45 21 c-46 23 -58 39 -48 64 5 13 22 15 93 13 86 -3 88 -4 88 -27z"/>
<path d="M3070 1150 c0 -17 7 -20 53 -21 28 0 73 -4 99 -7 l46 -7 -19 -24 -20 -24 -22 22 c-18 16 -36 21 -75 21 -79 0 -80 -17 -7 -106 l25 -31 -45 -55 c-25 -30 -45 -58 -45 -62 0 -3 31 -6 70 -6 55 0 71 3 79 17 9 17 10 17 28 0 15 -12 37 -17 86 -17 37 0 67 3 67 6 0 3 -20 30 -45 61 -50 61 -51 53 13 126 28 32 33 45 30 80 l-3 42 -157 3 c-153 2 -158 2 -158 -18z"/>
<path d="M3479 1126 c-2 -2 -3 -43 -1 -90 l3 -85 47 -3 46 -3 -42 -27 c-23 -16 -48 -28 -57 -28 -8 0 -15 -9 -15 -20 0 -18 7 -20 86 -20 79 0 91 3 136 30 26 17 50 30 53 30 3 0 27 -13 53 -30 45 -27 57 -30 136 -30 79 0 86 2 86 20 0 11 -7 20 -15 20 -9 0 -34 12 -57 28 l-42 27 47 3 47 3 0 90 0 89 -253 0 c-140 0 -256 -2 -258 -4z m379 -98 c2 -32 0 -58 -3 -58 -23 0 -55 36 -55 61 0 29 0 29 -65 29 -65 0 -65 0 -65 -29 0 -25 -32 -61 -55 -61 -8 0 -6 106 2 114 4 3 59 5 122 4 l116 -3 3 -57z"/>
<path d="M1650 960 l0 -111 68 3 c65 3 67 4 70 31 l3 27 105 0 c68 0 103 -4 99 -10 -3 -5 -13 -10 -21 -10 -8 0 -14 -9 -14 -20 0 -18 7 -20 65 -20 57 0 69 3 90 25 23 22 25 32 25 110 l0 85 -245 0 -245 0 0 -110z m350 60 c0 -6 -42 -10 -105 -10 -63 0 -105 4 -105 10 0 6 42 10 105 10 63 0 105 -4 105 -10z m0 -60 c0 -6 -42 -10 -105 -10 -63 0 -105 4 -105 10 0 6 42 10 105 10 63 0 105 -4 105 -10z"/>
<path d="M658 986 c-43 -41 -78 -80 -78 -88 0 -16 150 -168 166 -168 13 0 164 154 164 167 0 12 -153 163 -165 163 -6 0 -45 -33 -87 -74z"/>
<path d="M1650 750 c0 -7 398 -10 1175 -10 777 0 1175 3 1175 10 0 7 -398 10 -1175 10 -777 0 -1175 -3 -1175 -10z"/>
<path d="M1647 633 c-4 -3 -7 -37 -7 -75 0 -66 1 -68 25 -68 14 0 34 -5 45 -12 16 -10 23 -9 40 7 18 16 20 28 18 84 -2 51 -6 66 -18 66 -12 0 -14 -10 -12 -47 5 -65 -4 -88 -35 -88 -24 0 -25 1 -21 65 2 47 -1 66 -10 70 -17 6 -17 6 -25 -2z"/>
<path d="M1817 587 c3 -32 1 -62 -6 -75 -11 -20 -9 -22 16 -22 l28 0 0 75 c0 70 -1 75 -22 75 -20 0 -21 -4 -16 -53z"/>
<path d="M1907 633 c-4 -3 -7 -37 -7 -75 0 -53 3 -68 14 -68 10 0 16 14 18 43 l3 42 23 -42 c15 -29 29 -43 42 -43 18 0 20 7 20 75 0 60 -3 75 -15 75 -10 0 -15 -10 -15 -33 0 -50 -11 -52 -31 -7 -17 37 -36 49 -52 33z"/>
<path d="M2057 633 c-4 -3 -7 -37 -7 -75 l0 -68 61 0 c79 0 99 11 99 55 0 38 -6 40 -65 25 -16 -4 -22 -8 -12 -9 12 -1 17 -10 17 -31 0 -27 -3 -30 -30 -30 l-30 0 0 64 0 65 38 4 c31 3 29 4 -14 5 -28 1 -54 -1 -57 -5z"/>
<path d="M2285 631 c-8 -14 -45 -122 -45 -133 0 -20 30 -6 36 17 4 18 13 25 30 25 17 0 27 -8 34 -25 9 -24 21 -31 32 -19 4 3 -4 36 -16 72 -17 51 -28 68 -43 70 -12 2 -24 -2 -28 -7z m35 -67 c0 -14 -12 -19 -23 -8 -9 9 4 35 14 28 5 -3 9 -12 9 -20z"/>
<path d="M2410 565 c0 -60 3 -75 15 -75 11 0 15 11 15 41 0 47 15 44 36 -7 9 -23 21 -34 34 -34 18 0 20 7 20 75 0 60 -3 75 -15 75 -10 0 -15 -11 -15 -35 0 -19 -4 -35 -8 -35 -5 0 -16 16 -25 35 -11 23 -24 35 -37 35 -18 0 -20 -6 -20 -75z"/>
<path d="M2610 621 c14 -27 13 -104 -2 -119 -9 -9 -3 -12 27 -12 27 0 35 3 26 9 -10 6 -12 26 -9 75 l4 66 -28 0 c-25 0 -27 -2 -18 -19z"/>
<path d="M2707 633 c-4 -3 -7 -37 -7 -75 0 -53 3 -68 14 -68 10 0 16 14 18 43 l3 42 23 -42 c15 -29 29 -43 43 -43 18 0 20 5 17 73 -3 77 -19 94 -28 30 l-6 -38 -22 43 c-21 39 -39 51 -55 35z"/>
<path d="M2858 634 c-4 -3 -5 -11 -3 -17 2 -7 11 -38 20 -69 14 -53 18 -58 43 -58 26 0 29 5 45 64 21 78 21 86 2 86 -8 0 -19 -17 -26 -42 -17 -65 -21 -66 -38 -13 -15 46 -30 63 -43 49z"/>
<path d="M3015 617 c-4 -13 -5 -46 -3 -73 l3 -49 60 -1 c39 -1 45 0 18 3 l-43 4 3 62 2 62 40 6 c37 6 36 6 -17 8 -52 1 -58 -1 -63 -22z"/>
<path d="M3158 616 c-17 -38 -4 -54 44 -58 38 -3 43 -6 43 -28 0 -22 -5 -26 -45 -31 -41 -6 -40 -6 15 -5 l60 1 3 37 c3 37 3 37 -40 40 -38 3 -43 6 -43 28 0 21 6 26 40 31 39 6 39 6 -13 8 -47 1 -54 -2 -64 -23z"/>
<path d="M3328 630 c20 -8 22 -16 22 -75 0 -51 3 -65 15 -65 12 0 15 14 15 65 0 59 2 67 23 75 17 7 8 9 -38 9 -46 0 -55 -2 -37 -9z"/>
<path d="M3477 633 c-5 -8 -27 -118 -27 -135 0 -21 30 -5 36 20 10 45 11 48 19 27 20 -61 41 -69 51 -21 8 43 24 48 24 7 0 -30 13 -47 28 -37 5 3 4 36 -2 73 -10 58 -15 68 -33 71 -17 2 -23 -3 -28 -27 -8 -38 -23 -40 -27 -4 -3 27 -30 44 -41 26z"/>
<path d="M3650 565 l0 -75 58 2 c49 1 51 2 15 5 -38 4 -43 7 -43 28 0 13 4 27 10 30 6 4 5 13 -2 24 -17 27 -3 49 34 54 23 3 18 4 -19 5 l-53 2 0 -75z"/>
<path d="M3797 633 c-4 -3 -7 -37 -7 -75 0 -54 3 -68 15 -68 11 0 15 11 15 40 0 51 11 51 34 -1 14 -31 23 -39 39 -37 19 3 22 11 25 52 4 62 -4 96 -23 96 -9 0 -15 -14 -17 -42 l-3 -43 -23 43 c-21 39 -40 51 -55 35z"/>
<path d="M3963 633 c14 -4 17 -16 17 -74 0 -62 2 -69 20 -69 18 0 20 7 20 69 0 64 2 70 23 74 12 2 -5 4 -38 4 -33 1 -52 -1 -42 -4z"/>
</g>
</svg>